<?xml version="1.0" encoding="UTF-8"?>
<svg width="330px" height="252px" viewBox="0 0 330 252" version="1.1" xmlns="http://www.w3.org/2000/svg" xmlns:xlink="http://www.w3.org/1999/xlink" style="background: #FFFFFF;">
    <!-- Generator: Sketch 48.2 (47327) - http://www.bohemiancoding.com/sketch -->
    <title>hindsight_data</title>
    <desc>Created with Sketch.</desc>
    <defs>
        <filter x="-0.5%" y="-3.6%" width="102.2%" height="114.3%" filterUnits="objectBoundingBox" id="filter-1">
            <feOffset dx="1" dy="1" in="SourceAlpha" result="shadowOffsetOuter1"></feOffset>
            <feGaussianBlur stdDeviation="0.5" in="shadowOffsetOuter1" result="shadowBlurOuter1"></feGaussianBlur>
            <feColorMatrix values="0 0 0 0 0   0 0 0 0 0   0 0 0 0 0  0 0 0 0.5 0" type="matrix" in="shadowBlurOuter1" result="shadowMatrixOuter1"></feColorMatrix>
            <feMerge>
                <feMergeNode in="shadowMatrixOuter1"></feMergeNode>
                <feMergeNode in="SourceGraphic"></feMergeNode>
            </feMerge>
        </filter>
        <rect id="path-2" x="134" y="8" width="12" height="12"></rect>
        <rect id="path-3" x="120" y="8" width="12" height="12"></rect>
        <rect id="path-4" x="106" y="8" width="12" height="12"></rect>
        <rect id="path-5" x="92" y="8" width="12" height="12"></rect>
        <rect id="path-6" x="78" y="8" width="12" height="12"></rect>
        <rect id="path-7" x="64" y="8" width="12" height="12"></rect>
        <rect id="path-8" x="50" y="8" width="12" height="12"></rect>
        <rect id="path-9" x="36" y="8" width="12" height="12"></rect>
        <rect id="path-10" x="22" y="8" width="12" height="12"></rect>
        <rect id="path-11" x="8" y="8" width="12" height="12"></rect>
        <filter x="-0.5%" y="-3.6%" width="102.2%" height="114.3%" filterUnits="objectBoundingBox" id="filter-12">
            <feOffset dx="1" dy="1" in="SourceAlpha" result="shadowOffsetOuter1"></feOffset>
            <feGaussianBlur stdDeviation="0.5" in="shadowOffsetOuter1" result="shadowBlurOuter1"></feGaussianBlur>
            <feColorMatrix values="0 0 0 0 0   0 0 0 0 0   0 0 0 0 0  0 0 0 0.5 0" type="matrix" in="shadowBlurOuter1" result="shadowMatrixOuter1"></feColorMatrix>
            <feMerge>
                <feMergeNode in="shadowMatrixOuter1"></feMergeNode>
                <feMergeNode in="SourceGraphic"></feMergeNode>
            </feMerge>
        </filter>
        <rect id="path-13" x="134" y="8" width="12" height="12"></rect>
        <rect id="path-14" x="120" y="8" width="12" height="12"></rect>
        <rect id="path-15" x="106" y="8" width="12" height="12"></rect>
        <rect id="path-16" x="92" y="8" width="12" height="12"></rect>
        <rect id="path-17" x="78" y="8" width="12" height="12"></rect>
        <rect id="path-18" x="64" y="8" width="12" height="12"></rect>
        <rect id="path-19" x="50" y="8" width="12" height="12"></rect>
        <rect id="path-20" x="36" y="8" width="12" height="12"></rect>
        <rect id="path-21" x="22" y="8" width="12" height="12"></rect>
        <rect id="path-22" x="8" y="8" width="12" height="12"></rect>
        <filter x="-0.5%" y="-3.6%" width="102.2%" height="114.3%" filterUnits="objectBoundingBox" id="filter-23">
            <feOffset dx="1" dy="1" in="SourceAlpha" result="shadowOffsetOuter1"></feOffset>
            <feGaussianBlur stdDeviation="0.5" in="shadowOffsetOuter1" result="shadowBlurOuter1"></feGaussianBlur>
            <feColorMatrix values="0 0 0 0 0   0 0 0 0 0   0 0 0 0 0  0 0 0 0.5 0" type="matrix" in="shadowBlurOuter1" result="shadowMatrixOuter1"></feColorMatrix>
            <feMerge>
                <feMergeNode in="shadowMatrixOuter1"></feMergeNode>
                <feMergeNode in="SourceGraphic"></feMergeNode>
            </feMerge>
        </filter>
        <rect id="path-24" x="134" y="8" width="12" height="12"></rect>
        <rect id="path-25" x="120" y="8" width="12" height="12"></rect>
        <rect id="path-26" x="106" y="8" width="12" height="12"></rect>
        <rect id="path-27" x="92" y="8" width="12" height="12"></rect>
        <rect id="path-28" x="78" y="8" width="12" height="12"></rect>
        <rect id="path-29" x="64" y="8" width="12" height="12"></rect>
        <rect id="path-30" x="50" y="8" width="12" height="12"></rect>
        <rect id="path-31" x="36" y="8" width="12" height="12"></rect>
        <rect id="path-32" x="22" y="8" width="12" height="12"></rect>
        <rect id="path-33" x="8" y="8" width="12" height="12"></rect>
        <filter x="-3.6%" y="-3.6%" width="114.3%" height="114.3%" filterUnits="objectBoundingBox" id="filter-34">
            <feOffset dx="1" dy="1" in="SourceAlpha" result="shadowOffsetOuter1"></feOffset>
            <feGaussianBlur stdDeviation="0.5" in="shadowOffsetOuter1" result="shadowBlurOuter1"></feGaussianBlur>
            <feColorMatrix values="0 0 0 0 0   0 0 0 0 0   0 0 0 0 0  0 0 0 0.5 0" type="matrix" in="shadowBlurOuter1" result="shadowMatrixOuter1"></feColorMatrix>
            <feMerge>
                <feMergeNode in="shadowMatrixOuter1"></feMergeNode>
                <feMergeNode in="SourceGraphic"></feMergeNode>
            </feMerge>
        </filter>
        <filter x="-3.6%" y="-3.6%" width="114.3%" height="114.3%" filterUnits="objectBoundingBox" id="filter-35">
            <feOffset dx="1" dy="1" in="SourceAlpha" result="shadowOffsetOuter1"></feOffset>
            <feGaussianBlur stdDeviation="0.5" in="shadowOffsetOuter1" result="shadowBlurOuter1"></feGaussianBlur>
            <feColorMatrix values="0 0 0 0 0   0 0 0 0 0   0 0 0 0 0  0 0 0 0.5 0" type="matrix" in="shadowBlurOuter1" result="shadowMatrixOuter1"></feColorMatrix>
            <feMerge>
                <feMergeNode in="shadowMatrixOuter1"></feMergeNode>
                <feMergeNode in="SourceGraphic"></feMergeNode>
            </feMerge>
        </filter>
        <rect id="path-36" x="0" y="0" width="315" height="28"></rect>
        <filter x="-0.3%" y="-3.6%" width="101.3%" height="114.3%" filterUnits="objectBoundingBox" id="filter-37">
            <feOffset dx="1" dy="1" in="SourceAlpha" result="shadowOffsetOuter1"></feOffset>
            <feMorphology radius="1" operator="erode" in="SourceAlpha" result="shadowInner"></feMorphology>
            <feOffset dx="1" dy="1" in="shadowInner" result="shadowInner"></feOffset>
            <feComposite in="shadowOffsetOuter1" in2="shadowInner" operator="out" result="shadowOffsetOuter1"></feComposite>
            <feGaussianBlur stdDeviation="0.5" in="shadowOffsetOuter1" result="shadowBlurOuter1"></feGaussianBlur>
            <feColorMatrix values="0 0 0 0 0   0 0 0 0 0   0 0 0 0 0  0 0 0 0.5 0" type="matrix" in="shadowBlurOuter1"></feColorMatrix>
        </filter>
        <rect id="path-38" x="0" y="0" width="12" height="12"></rect>
        <rect id="path-39" x="119" y="7" width="12" height="12"></rect>
        <rect id="path-40" x="105" y="7" width="12" height="12"></rect>
        <rect id="path-41" x="91" y="7" width="12" height="12"></rect>
        <rect id="path-42" x="77" y="7" width="12" height="12"></rect>
        <rect id="path-43" x="63" y="7" width="12" height="12"></rect>
        <rect id="path-44" x="49" y="7" width="12" height="12"></rect>
        <rect id="path-45" x="35" y="7" width="12" height="12"></rect>
        <rect id="path-46" x="21" y="7" width="12" height="12"></rect>
        <rect id="path-47" x="7" y="7" width="12" height="12"></rect>
        <rect id="path-48" x="134" y="7" width="12" height="12"></rect>
        <rect id="path-49" x="120" y="7" width="12" height="12"></rect>
        <rect id="path-50" x="106" y="7" width="12" height="12"></rect>
        <rect id="path-51" x="92" y="7" width="12" height="12"></rect>
        <rect id="path-52" x="78" y="7" width="12" height="12"></rect>
        <rect id="path-53" x="64" y="7" width="12" height="12"></rect>
        <rect id="path-54" x="50" y="7" width="12" height="12"></rect>
        <rect id="path-55" x="36" y="7" width="12" height="12"></rect>
        <rect id="path-56" x="22" y="7" width="12" height="12"></rect>
        <rect id="path-57" x="0" y="0" width="12" height="12"></rect>
        <rect id="path-58" x="0" y="0" width="12" height="12"></rect>
        <rect id="path-59" x="0" y="0" width="12" height="12"></rect>
        <filter x="-1.0%" y="-3.6%" width="103.9%" height="114.3%" filterUnits="objectBoundingBox" id="filter-60">
            <feOffset dx="1" dy="1" in="SourceAlpha" result="shadowOffsetOuter1"></feOffset>
            <feGaussianBlur stdDeviation="0.5" in="shadowOffsetOuter1" result="shadowBlurOuter1"></feGaussianBlur>
            <feColorMatrix values="0 0 0 0 0   0 0 0 0 0   0 0 0 0 0  0 0 0 0.5 0" type="matrix" in="shadowBlurOuter1" result="shadowMatrixOuter1"></feColorMatrix>
            <feMerge>
                <feMergeNode in="shadowMatrixOuter1"></feMergeNode>
                <feMergeNode in="SourceGraphic"></feMergeNode>
            </feMerge>
        </filter>
        <rect id="path-61" x="55" y="8" width="12" height="12"></rect>
        <rect id="path-62" x="22" y="8" width="12" height="12"></rect>
        <rect id="path-63" x="8" y="8" width="12" height="12"></rect>
        <rect id="path-64" x="0" y="0" width="28" height="28"></rect>
        <filter x="-3.6%" y="-3.6%" width="114.3%" height="114.3%" filterUnits="objectBoundingBox" id="filter-65">
            <feOffset dx="1" dy="1" in="SourceAlpha" result="shadowOffsetOuter1"></feOffset>
            <feGaussianBlur stdDeviation="0.5" in="shadowOffsetOuter1" result="shadowBlurOuter1"></feGaussianBlur>
            <feColorMatrix values="0 0 0 0 0   0 0 0 0 0   0 0 0 0 0  0 0 0 0.5 0" type="matrix" in="shadowBlurOuter1"></feColorMatrix>
        </filter>
        <filter x="-1.0%" y="-3.6%" width="103.9%" height="114.3%" filterUnits="objectBoundingBox" id="filter-66">
            <feOffset dx="1" dy="1" in="SourceAlpha" result="shadowOffsetOuter1"></feOffset>
            <feGaussianBlur stdDeviation="0.5" in="shadowOffsetOuter1" result="shadowBlurOuter1"></feGaussianBlur>
            <feColorMatrix values="0 0 0 0 0   0 0 0 0 0   0 0 0 0 0  0 0 0 0.5 0" type="matrix" in="shadowBlurOuter1" result="shadowMatrixOuter1"></feColorMatrix>
            <feMerge>
                <feMergeNode in="shadowMatrixOuter1"></feMergeNode>
                <feMergeNode in="SourceGraphic"></feMergeNode>
            </feMerge>
        </filter>
        <rect id="path-67" x="55" y="8" width="12" height="12"></rect>
        <rect id="path-68" x="22" y="8" width="12" height="12"></rect>
        <rect id="path-69" x="8" y="8" width="12" height="12"></rect>
        <rect id="path-70" x="0" y="0" width="28" height="28"></rect>
        <filter x="-3.6%" y="-3.6%" width="114.3%" height="114.3%" filterUnits="objectBoundingBox" id="filter-71">
            <feOffset dx="1" dy="1" in="SourceAlpha" result="shadowOffsetOuter1"></feOffset>
            <feGaussianBlur stdDeviation="0.5" in="shadowOffsetOuter1" result="shadowBlurOuter1"></feGaussianBlur>
            <feColorMatrix values="0 0 0 0 0   0 0 0 0 0   0 0 0 0 0  0 0 0 0.5 0" type="matrix" in="shadowBlurOuter1"></feColorMatrix>
        </filter>
        <filter x="-1.0%" y="-3.6%" width="103.9%" height="114.3%" filterUnits="objectBoundingBox" id="filter-72">
            <feOffset dx="1" dy="1" in="SourceAlpha" result="shadowOffsetOuter1"></feOffset>
            <feGaussianBlur stdDeviation="0.5" in="shadowOffsetOuter1" result="shadowBlurOuter1"></feGaussianBlur>
            <feColorMatrix values="0 0 0 0 0   0 0 0 0 0   0 0 0 0 0  0 0 0 0.5 0" type="matrix" in="shadowBlurOuter1" result="shadowMatrixOuter1"></feColorMatrix>
            <feMerge>
                <feMergeNode in="shadowMatrixOuter1"></feMergeNode>
                <feMergeNode in="SourceGraphic"></feMergeNode>
            </feMerge>
        </filter>
        <rect id="path-73" x="55" y="8" width="12" height="12"></rect>
        <rect id="path-74" x="22" y="8" width="12" height="12"></rect>
        <rect id="path-75" x="8" y="8" width="12" height="12"></rect>
        <rect id="path-76" x="0" y="0" width="28" height="28"></rect>
        <filter x="-3.6%" y="-3.6%" width="114.3%" height="114.3%" filterUnits="objectBoundingBox" id="filter-77">
            <feOffset dx="1" dy="1" in="SourceAlpha" result="shadowOffsetOuter1"></feOffset>
            <feGaussianBlur stdDeviation="0.5" in="shadowOffsetOuter1" result="shadowBlurOuter1"></feGaussianBlur>
            <feColorMatrix values="0 0 0 0 0   0 0 0 0 0   0 0 0 0 0  0 0 0 0.5 0" type="matrix" in="shadowBlurOuter1"></feColorMatrix>
        </filter>
    </defs>
    <g id="Page-1" stroke="none" stroke-width="1" fill="none" fill-rule="evenodd">
        <g id="hindsight_data">
            <g id="Group-3" transform="translate(1.000000, 0.000000)">
                <g id="Dataset" transform="translate(74.000000, 0.500000)">
                    <g id="Data-Point" filter="url(#filter-1)" transform="translate(5.000000, 5.000000)">
                        <g id="Task">
                            <rect id="Rectangle" fill="#AC6670" x="0" y="0" width="28" height="28"></rect>
                            <g transform="translate(7.000000, 4.000000)" stroke="#FFFFFF" stroke-width="1.3">
                                <path d="M9.07645577,3 L12,3 C12.5522847,3 13,3.44771525 13,4 L13,17 C13,17.5522847 12.5522847,18 12,18 L2,18 C1.44771525,18 1,17.5522847 1,17 L1,4 C1,3.44771525 1.44771525,3 2,3 L5.02579406,3" id="Rectangle"></path>
                                <rect id="Rectangle-2" x="5" y="1" width="4" height="4" rx="1"></rect>
                                <polyline id="Path-2" stroke-linecap="round" stroke-linejoin="round" points="4 10.6936955 6.528165 13.3873911 10.2313965 7.99911022"></polyline>
                            </g>
                        </g>
                        <g id="Traj" transform="translate(28.000000, 0.000000)">
                            <rect id="Rectangle-3" fill="#DFDFDF" x="0" y="0" width="154" height="28"></rect>
                            <g id="Rectangle-2-Copy-10">
                                <use fill="#7B7A7A" fill-rule="evenodd" xlink:href="#path-2"></use>
                                <rect stroke="#1D1D1D" stroke-width="1" x="134.5" y="8.5" width="11" height="11"></rect>
                            </g>
                            <g id="Rectangle-2-Copy-9">
                                <use fill="#7B7A7A" fill-rule="evenodd" xlink:href="#path-3"></use>
                                <rect stroke="#1D1D1D" stroke-width="1" x="120.5" y="8.5" width="11" height="11"></rect>
                            </g>
                            <g id="Rectangle-2-Copy-8">
                                <use fill="#7B7A7A" fill-rule="evenodd" xlink:href="#path-4"></use>
                                <rect stroke="#1D1D1D" stroke-width="1" x="106.5" y="8.5" width="11" height="11"></rect>
                            </g>
                            <g id="Rectangle-2-Copy-7">
                                <use fill="#7B7A7A" fill-rule="evenodd" xlink:href="#path-5"></use>
                                <rect stroke="#1D1D1D" stroke-width="1" x="92.5" y="8.5" width="11" height="11"></rect>
                            </g>
                            <g id="Rectangle-2-Copy-6">
                                <use fill="#7B7A7A" fill-rule="evenodd" xlink:href="#path-6"></use>
                                <rect stroke="#1D1D1D" stroke-width="1" x="78.5" y="8.5" width="11" height="11"></rect>
                            </g>
                            <g id="Rectangle-2-Copy-5">
                                <use fill="#7B7A7A" fill-rule="evenodd" xlink:href="#path-7"></use>
                                <rect stroke="#1D1D1D" stroke-width="1" x="64.5" y="8.5" width="11" height="11"></rect>
                            </g>
                            <g id="Rectangle-2-Copy-4">
                                <use fill="#7B7A7A" fill-rule="evenodd" xlink:href="#path-8"></use>
                                <rect stroke="#1D1D1D" stroke-width="1" x="50.5" y="8.5" width="11" height="11"></rect>
                            </g>
                            <g id="Rectangle-2-Copy-3">
                                <use fill="#7B7A7A" fill-rule="evenodd" xlink:href="#path-9"></use>
                                <rect stroke="#1D1D1D" stroke-width="1" x="36.5" y="8.5" width="11" height="11"></rect>
                            </g>
                            <g id="Rectangle-2-Copy">
                                <use fill="#7B7A7A" fill-rule="evenodd" xlink:href="#path-10"></use>
                                <rect stroke="#1D1D1D" stroke-width="1" x="22.5" y="8.5" width="11" height="11"></rect>
                            </g>
                            <g id="Rectangle-2">
                                <use fill="#7B7A7A" fill-rule="evenodd" xlink:href="#path-11"></use>
                                <rect stroke="#1D1D1D" stroke-width="1" x="8.5" y="8.5" width="11" height="11"></rect>
                            </g>
                        </g>
                    </g>
                    <g id="Data-Point" filter="url(#filter-12)" transform="translate(2.500000, 2.500000)">
                        <g id="Task">
                            <rect id="Rectangle" fill="#AC6670" x="0" y="0" width="28" height="28"></rect>
                            <g transform="translate(7.000000, 4.000000)" stroke="#FFFFFF" stroke-width="1.3">
                                <path d="M9.07645577,3 L12,3 C12.5522847,3 13,3.44771525 13,4 L13,17 C13,17.5522847 12.5522847,18 12,18 L2,18 C1.44771525,18 1,17.5522847 1,17 L1,4 C1,3.44771525 1.44771525,3 2,3 L5.02579406,3" id="Rectangle"></path>
                                <rect id="Rectangle-2" x="5" y="1" width="4" height="4" rx="1"></rect>
                                <polyline id="Path-2" stroke-linecap="round" stroke-linejoin="round" points="4 10.6936955 6.528165 13.3873911 10.2313965 7.99911022"></polyline>
                            </g>
                        </g>
                        <g id="Traj" transform="translate(28.000000, 0.000000)">
                            <rect id="Rectangle-3" fill="#DFDFDF" x="0" y="0" width="154" height="28"></rect>
                            <g id="Rectangle-2-Copy-10">
                                <use fill="#7B7A7A" fill-rule="evenodd" xlink:href="#path-13"></use>
                                <rect stroke="#1D1D1D" stroke-width="1" x="134.5" y="8.5" width="11" height="11"></rect>
                            </g>
                            <g id="Rectangle-2-Copy-9">
                                <use fill="#7B7A7A" fill-rule="evenodd" xlink:href="#path-14"></use>
                                <rect stroke="#1D1D1D" stroke-width="1" x="120.5" y="8.5" width="11" height="11"></rect>
                            </g>
                            <g id="Rectangle-2-Copy-8">
                                <use fill="#7B7A7A" fill-rule="evenodd" xlink:href="#path-15"></use>
                                <rect stroke="#1D1D1D" stroke-width="1" x="106.5" y="8.5" width="11" height="11"></rect>
                            </g>
                            <g id="Rectangle-2-Copy-7">
                                <use fill="#7B7A7A" fill-rule="evenodd" xlink:href="#path-16"></use>
                                <rect stroke="#1D1D1D" stroke-width="1" x="92.5" y="8.5" width="11" height="11"></rect>
                            </g>
                            <g id="Rectangle-2-Copy-6">
                                <use fill="#7B7A7A" fill-rule="evenodd" xlink:href="#path-17"></use>
                                <rect stroke="#1D1D1D" stroke-width="1" x="78.5" y="8.5" width="11" height="11"></rect>
                            </g>
                            <g id="Rectangle-2-Copy-5">
                                <use fill="#7B7A7A" fill-rule="evenodd" xlink:href="#path-18"></use>
                                <rect stroke="#1D1D1D" stroke-width="1" x="64.5" y="8.5" width="11" height="11"></rect>
                            </g>
                            <g id="Rectangle-2-Copy-4">
                                <use fill="#7B7A7A" fill-rule="evenodd" xlink:href="#path-19"></use>
                                <rect stroke="#1D1D1D" stroke-width="1" x="50.5" y="8.5" width="11" height="11"></rect>
                            </g>
                            <g id="Rectangle-2-Copy-3">
                                <use fill="#7B7A7A" fill-rule="evenodd" xlink:href="#path-20"></use>
                                <rect stroke="#1D1D1D" stroke-width="1" x="36.5" y="8.5" width="11" height="11"></rect>
                            </g>
                            <g id="Rectangle-2-Copy">
                                <use fill="#7B7A7A" fill-rule="evenodd" xlink:href="#path-21"></use>
                                <rect stroke="#1D1D1D" stroke-width="1" x="22.5" y="8.5" width="11" height="11"></rect>
                            </g>
                            <g id="Rectangle-2">
                                <use fill="#7B7A7A" fill-rule="evenodd" xlink:href="#path-22"></use>
                                <rect stroke="#1D1D1D" stroke-width="1" x="8.5" y="8.5" width="11" height="11"></rect>
                            </g>
                        </g>
                    </g>
                    <g id="Data-Point" filter="url(#filter-23)">
                        <g id="Task">
                            <rect id="Rectangle" fill="#AC6670" x="0" y="0" width="28" height="28"></rect>
                            <g transform="translate(7.000000, 4.000000)" stroke="#FFFFFF" stroke-width="1.3">
                                <path d="M9.07645577,3 L12,3 C12.5522847,3 13,3.44771525 13,4 L13,17 C13,17.5522847 12.5522847,18 12,18 L2,18 C1.44771525,18 1,17.5522847 1,17 L1,4 C1,3.44771525 1.44771525,3 2,3 L5.02579406,3" id="Rectangle"></path>
                                <rect id="Rectangle-2" x="5" y="1" width="4" height="4" rx="1"></rect>
                                <polyline id="Path-2" stroke-linecap="round" stroke-linejoin="round" points="4 10.6936955 6.528165 13.3873911 10.2313965 7.99911022"></polyline>
                            </g>
                        </g>
                        <g id="Traj" transform="translate(28.000000, 0.000000)">
                            <rect id="Rectangle-3" fill="#DFDFDF" x="0" y="0" width="154" height="28"></rect>
                            <g id="Rectangle-2-Copy-10">
                                <use fill="#7B7A7A" fill-rule="evenodd" xlink:href="#path-24"></use>
                                <rect stroke="#1D1D1D" stroke-width="1" x="134.5" y="8.5" width="11" height="11"></rect>
                            </g>
                            <g id="Rectangle-2-Copy-9">
                                <use fill="#7B7A7A" fill-rule="evenodd" xlink:href="#path-25"></use>
                                <rect stroke="#1D1D1D" stroke-width="1" x="120.5" y="8.5" width="11" height="11"></rect>
                            </g>
                            <g id="Rectangle-2-Copy-8">
                                <use fill="#7B7A7A" fill-rule="evenodd" xlink:href="#path-26"></use>
                                <rect stroke="#1D1D1D" stroke-width="1" x="106.5" y="8.5" width="11" height="11"></rect>
                            </g>
                            <g id="Rectangle-2-Copy-7">
                                <use fill="#7B7A7A" fill-rule="evenodd" xlink:href="#path-27"></use>
                                <rect stroke="#1D1D1D" stroke-width="1" x="92.5" y="8.5" width="11" height="11"></rect>
                            </g>
                            <g id="Rectangle-2-Copy-6">
                                <use fill="#7B7A7A" fill-rule="evenodd" xlink:href="#path-28"></use>
                                <rect stroke="#1D1D1D" stroke-width="1" x="78.5" y="8.5" width="11" height="11"></rect>
                            </g>
                            <g id="Rectangle-2-Copy-5">
                                <use fill="#7B7A7A" fill-rule="evenodd" xlink:href="#path-29"></use>
                                <rect stroke="#1D1D1D" stroke-width="1" x="64.5" y="8.5" width="11" height="11"></rect>
                            </g>
                            <g id="Rectangle-2-Copy-4">
                                <use fill="#7B7A7A" fill-rule="evenodd" xlink:href="#path-30"></use>
                                <rect stroke="#1D1D1D" stroke-width="1" x="50.5" y="8.5" width="11" height="11"></rect>
                            </g>
                            <g id="Rectangle-2-Copy-3">
                                <use fill="#7B7A7A" fill-rule="evenodd" xlink:href="#path-31"></use>
                                <rect stroke="#1D1D1D" stroke-width="1" x="36.5" y="8.5" width="11" height="11"></rect>
                            </g>
                            <g id="Rectangle-2-Copy">
                                <use fill="#7B7A7A" fill-rule="evenodd" xlink:href="#path-32"></use>
                                <rect stroke="#1D1D1D" stroke-width="1" x="22.5" y="8.5" width="11" height="11"></rect>
                            </g>
                            <g id="Rectangle-2">
                                <use fill="#7B7A7A" fill-rule="evenodd" xlink:href="#path-33"></use>
                                <rect stroke="#1D1D1D" stroke-width="1" x="8.5" y="8.5" width="11" height="11"></rect>
                            </g>
                        </g>
                    </g>
                </g>
                <g id="Task-1" filter="url(#filter-34)" transform="translate(136.000000, 66.000000)">
                    <rect id="Rectangle" fill="#AC6670" x="0" y="0" width="28" height="28"></rect>
                    <g id="Task" transform="translate(7.000000, 4.000000)" stroke="#FFFFFF" stroke-width="1.3">
                        <path d="M9.07645577,3 L12,3 C12.5522847,3 13,3.44771525 13,4 L13,17 C13,17.5522847 12.5522847,18 12,18 L2,18 C1.44771525,18 1,17.5522847 1,17 L1,4 C1,3.44771525 1.44771525,3 2,3 L5.02579406,3" id="Rectangle"></path>
                        <rect id="Rectangle-2" x="5" y="1" width="4" height="4" rx="1"></rect>
                        <polyline id="Path-2" stroke-linecap="round" stroke-linejoin="round" points="4 10.6936955 6.528165 13.3873911 10.2313965 7.99911022"></polyline>
                    </g>
                    <circle id="Oval" stroke="#AC6670" fill="#FFFFFF" cx="19" cy="20" r="4"></circle>
                    <text id="1" font-family="Avenir-Black, Avenir" font-size="5" font-weight="700" fill="#AC6670">
                        <tspan x="17.4199939" y="21.8000031">1</tspan>
                    </text>
                </g>
                <g id="Task-2" filter="url(#filter-35)" transform="translate(171.000000, 66.000000)">
                    <rect id="Rectangle" fill="#AC6670" x="0" y="0" width="28" height="28"></rect>
                    <g id="Task" transform="translate(7.000000, 4.000000)" stroke="#FFFFFF" stroke-width="1.3">
                        <path d="M9.07645577,3 L12,3 C12.5522847,3 13,3.44771525 13,4 L13,17 C13,17.5522847 12.5522847,18 12,18 L2,18 C1.44771525,18 1,17.5522847 1,17 L1,4 C1,3.44771525 1.44771525,3 2,3 L5.02579406,3" id="Rectangle"></path>
                        <rect id="Rectangle-2" x="5" y="1" width="4" height="4" rx="1"></rect>
                        <polyline id="Path-2" stroke-linecap="round" stroke-linejoin="round" points="4 10.6936955 6.528165 13.3873911 10.2313965 7.99911022"></polyline>
                    </g>
                    <circle id="Oval" stroke="#AC6670" fill="#FFFFFF" cx="19" cy="20" r="4"></circle>
                    <text id="2" font-family="Avenir-Black, Avenir" font-size="5" font-weight="700" fill="#AC6670">
                        <tspan x="17.52" y="21.6999969">2</tspan>
                    </text>
                </g>
                <g id="Arrow" transform="translate(164.000000, 39.000000)">
                    <path d="M3.5,0.5 L3.5,17.5" id="Line" stroke="#000000" stroke-linecap="square"></path>
                    <polygon id="Triangle" fill="#000000" points="3.5 23 0.5 18 6.5 18"></polygon>
                </g>
                <g id="Arrow" transform="translate(164.000000, 39.000000)">
                    <path d="M3.5,0.5 L3.5,17.5" id="Line" stroke="#000000" stroke-linecap="square"></path>
                    <polygon id="Triangle" fill="#000000" points="3.5 23 0.5 18 6.5 18"></polygon>
                </g>
                <text id="Sample-Tasks" font-family="CMUSerif-Roman, CMU Serif" font-size="10" font-weight="500" fill="#000000">
                    <tspan x="174.33" y="52.5">Sample Tasks</tspan>
                </text>
                <text id="Run-Task-1" font-family="CMUSerif-Roman, CMU Serif" font-size="10" font-weight="500" fill="#000000">
                    <tspan x="30.225" y="111">Run Task 1</tspan>
                </text>
                <text id="Run-Task-2" font-family="CMUSerif-Roman, CMU Serif" font-size="10" font-weight="500" fill="#000000">
                    <tspan x="254.225" y="111">Run Task 2</tspan>
                </text>
                <g id="Task-1-Arrow" transform="translate(85.000000, 97.000000)">
                    <polygon id="Triangle" fill="#000000" points="3 24 0 19 6 19"></polygon>
                    <path d="M65,0.0565019858 L65,9 C65,10.6568542 63.6568542,12 62,12 L6,12 C4.34314575,12 3,13.3431458 3,15 L3,23.2205976" id="Path-2" stroke="#000000"></path>
                </g>
                <g id="Task-2-Arrow" transform="translate(185.000000, 97.000000)">
                    <polygon id="Triangle" fill="#000000" points="63 24 60 19 66 19"></polygon>
                    <path d="M63,0 L63,8.94349801 C63,10.6003523 61.6568542,11.943498 60,11.943498 L3,11.943498 C1.34314575,11.943498 -3.7556198e-15,13.2866438 -3.55271368e-15,14.943498 L-7.10542736e-15,23.1640956" id="Path-2" stroke="#000000" transform="translate(31.500000, 11.582048) scale(-1, 1) translate(-31.500000, -11.582048) "></path>
                </g>
                <g id="Traj-for-Concat-Task" transform="translate(11.000000, 124.000000)">
                    <g id="Rectangle-3">
                        <use fill="black" fill-opacity="1" filter="url(#filter-37)" xlink:href="#path-36"></use>
                        <rect stroke="#D3D3D3" stroke-width="1" x="0.5" y="0.5" width="314" height="27"></rect>
                    </g>
                    <rect id="Rectangle-4" fill="#FFFFFF" x="149" y="1" width="11" height="26"></rect>
                    <g id="Traj" transform="translate(1.000000, 1.000000)">
                        <rect id="Rectangle-3" fill="#F1F1F1" x="0" y="0" width="153" height="26"></rect>
                        <g id="Start-State" transform="translate(133.000000, 7.000000)">
                            <g id="Rectangle-2">
                                <use fill="#AC6670" fill-rule="evenodd" xlink:href="#path-38"></use>
                                <rect stroke="#AC6670" stroke-width="1" x="0.5" y="0.5" width="11" height="11"></rect>
                            </g>
                            <rect id="Rectangle-2" stroke="#000000" opacity="0.394984149" x="0.5" y="0.5" width="11" height="11"></rect>
                        </g>
                        <g id="Rectangle-2-Copy-9">
                            <use fill="#7B7A7A" fill-rule="evenodd" xlink:href="#path-39"></use>
                            <rect stroke="#1D1D1D" stroke-width="1" x="119.5" y="7.5" width="11" height="11"></rect>
                        </g>
                        <g id="Rectangle-2-Copy-8">
                            <use fill="#7B7A7A" fill-rule="evenodd" xlink:href="#path-40"></use>
                            <rect stroke="#1D1D1D" stroke-width="1" x="105.5" y="7.5" width="11" height="11"></rect>
                        </g>
                        <g id="Rectangle-2-Copy-7">
                            <use fill="#7B7A7A" fill-rule="evenodd" xlink:href="#path-41"></use>
                            <rect stroke="#1D1D1D" stroke-width="1" x="91.5" y="7.5" width="11" height="11"></rect>
                        </g>
                        <g id="Rectangle-2-Copy-6">
                            <use fill="#7B7A7A" fill-rule="evenodd" xlink:href="#path-42"></use>
                            <rect stroke="#1D1D1D" stroke-width="1" x="77.5" y="7.5" width="11" height="11"></rect>
                        </g>
                        <g id="Rectangle-2-Copy-5">
                            <use fill="#7B7A7A" fill-rule="evenodd" xlink:href="#path-43"></use>
                            <rect stroke="#1D1D1D" stroke-width="1" x="63.5" y="7.5" width="11" height="11"></rect>
                        </g>
                        <g id="Rectangle-2-Copy-4">
                            <use fill="#7B7A7A" fill-rule="evenodd" xlink:href="#path-44"></use>
                            <rect stroke="#1D1D1D" stroke-width="1" x="49.5" y="7.5" width="11" height="11"></rect>
                        </g>
                        <g id="Rectangle-2-Copy-3">
                            <use fill="#7B7A7A" fill-rule="evenodd" xlink:href="#path-45"></use>
                            <rect stroke="#1D1D1D" stroke-width="1" x="35.5" y="7.5" width="11" height="11"></rect>
                        </g>
                        <g id="Rectangle-2-Copy">
                            <use fill="#7B7A7A" fill-rule="evenodd" xlink:href="#path-46"></use>
                            <rect stroke="#1D1D1D" stroke-width="1" x="21.5" y="7.5" width="11" height="11"></rect>
                        </g>
                        <g id="Rectangle-2-Copy">
                            <use fill="#7B7A7A" fill-rule="evenodd" xlink:href="#path-47"></use>
                            <rect stroke="#1D1D1D" stroke-width="1" x="7.5" y="7.5" width="11" height="11"></rect>
                        </g>
                    </g>
                    <g id="Traj" transform="translate(160.000000, 1.000000)">
                        <rect id="Rectangle-3" fill="#F1F1F1" x="0" y="0" width="154" height="26"></rect>
                        <g id="Rectangle-2-Copy-10">
                            <use fill="#7B7A7A" fill-rule="evenodd" xlink:href="#path-48"></use>
                            <rect stroke="#1D1D1D" stroke-width="1" x="134.5" y="7.5" width="11" height="11"></rect>
                        </g>
                        <g id="Rectangle-2-Copy-9">
                            <use fill="#7B7A7A" fill-rule="evenodd" xlink:href="#path-49"></use>
                            <rect stroke="#1D1D1D" stroke-width="1" x="120.5" y="7.5" width="11" height="11"></rect>
                        </g>
                        <g id="Rectangle-2-Copy-8">
                            <use fill="#7B7A7A" fill-rule="evenodd" xlink:href="#path-50"></use>
                            <rect stroke="#1D1D1D" stroke-width="1" x="106.5" y="7.5" width="11" height="11"></rect>
                        </g>
                        <g id="Rectangle-2-Copy-7">
                            <use fill="#7B7A7A" fill-rule="evenodd" xlink:href="#path-51"></use>
                            <rect stroke="#1D1D1D" stroke-width="1" x="92.5" y="7.5" width="11" height="11"></rect>
                        </g>
                        <g id="Rectangle-2-Copy-6">
                            <use fill="#7B7A7A" fill-rule="evenodd" xlink:href="#path-52"></use>
                            <rect stroke="#1D1D1D" stroke-width="1" x="78.5" y="7.5" width="11" height="11"></rect>
                        </g>
                        <g id="Rectangle-2-Copy-5">
                            <use fill="#7B7A7A" fill-rule="evenodd" xlink:href="#path-53"></use>
                            <rect stroke="#1D1D1D" stroke-width="1" x="64.5" y="7.5" width="11" height="11"></rect>
                        </g>
                        <g id="Rectangle-2-Copy-4">
                            <use fill="#7B7A7A" fill-rule="evenodd" xlink:href="#path-54"></use>
                            <rect stroke="#1D1D1D" stroke-width="1" x="50.5" y="7.5" width="11" height="11"></rect>
                        </g>
                        <g id="Rectangle-2-Copy-3">
                            <use fill="#7B7A7A" fill-rule="evenodd" xlink:href="#path-55"></use>
                            <rect stroke="#1D1D1D" stroke-width="1" x="36.5" y="7.5" width="11" height="11"></rect>
                        </g>
                        <g id="Rectangle-2-Copy">
                            <use fill="#7B7A7A" fill-rule="evenodd" xlink:href="#path-56"></use>
                            <rect stroke="#1D1D1D" stroke-width="1" x="22.5" y="7.5" width="11" height="11"></rect>
                        </g>
                        <g id="Start-State" transform="translate(8.000000, 7.000000)">
                            <g id="Rectangle-2">
                                <use fill="#AC6670" fill-rule="evenodd" xlink:href="#path-57"></use>
                                <rect stroke="#AC6670" stroke-width="1" x="0.5" y="0.5" width="11" height="11"></rect>
                            </g>
                            <rect id="Rectangle-2" stroke="#000000" opacity="0.394984149" x="0.5" y="0.5" width="11" height="11"></rect>
                        </g>
                    </g>
                </g>
                <g id="Task-2-Arrow" transform="translate(150.500000, 146.000000)">
                    <polygon id="Triangle" fill="#000000" points="113 31 110 26 116 26"></polygon>
                    <path d="M113,0.5 L113,16.943498 C113,18.6003523 111.656854,19.943498 110,19.943498 L3.5,19.943498 C1.84314575,19.943498 0.5,21.2866438 0.5,22.943498 L0.5,29.1640956" id="Path-2" stroke="#000000" transform="translate(56.750000, 14.832048) scale(-1, 1) translate(-56.750000, -14.832048) "></path>
                </g>
                <g id="Task-2-Arrow" transform="translate(0.000000, 137.500000)">
                    <polygon id="Triangle" fill="#000000" points="152 74.5 149 69.5 155 69.5"></polygon>
                    <path d="M144.865626,0.5 L149,0.5 C150.656854,0.5 152,1.84314575 152,3.5 L152,60.943498 C152,62.6003523 150.656854,63.943498 149,63.943498 L3,63.943498 C1.34314575,63.943498 -8.37402576e-13,65.2866438 -8.52651283e-13,66.943498 L-9.09494702e-13,71.1640956" id="Path-2" stroke="#000000" transform="translate(76.000000, 35.832048) scale(-1, 1) translate(-76.000000, -35.832048) "></path>
                </g>
                <g id="Task-2-Arrow" transform="translate(216.000000, 185.500000)">
                    <polygon id="Triangle" fill="#000000" points="3 26.5 0 21.5 6 21.5"></polygon>
                    <path d="M13.7561651,0.639502394 L6,0.639502391 C4.34314575,0.63950239 3,1.98264814 3,3.63950239 L3,12.943498 C3,14.6003523 4.34314575,15.943498 6,15.943498 L94.5781376,15.943498 C96.2349918,15.943498 97.5781376,17.2866438 97.5781376,18.943498 L97.5781376,23.1640956" id="Path-2" stroke="#000000" transform="translate(50.289069, 11.901799) scale(-1, 1) translate(-50.289069, -11.901799) "></path>
                </g>
                <g id="Task-2-Arrow" transform="translate(185.000000, 146.000000)">
                    <polygon id="Triangle" fill="#000000" points="97 31 94 26 100 26"></polygon>
                    <path d="M97,0.5 L97,11.943498 C97,13.6003523 95.6568542,14.943498 94,14.943498 L3,14.943498 C1.34314575,14.943498 9.55398373e-15,16.2866438 7.54951657e-15,17.943498 L0,29.1640956" id="Path-2" stroke="#000000" transform="translate(48.500000, 14.832048) scale(-1, 1) translate(-48.500000, -14.832048) "></path>
                </g>
                <g id="LR-Step" transform="translate(35.000000, 179.000000)">
                    <text id="Compute-hindsight-le" font-family="CMUSerif-Roman, CMU Serif" font-size="10" font-weight="500" fill="#000000">
                        <tspan x="0.745" y="9">Compute hindsight learning rate:</tspan>
                    </text>
                    <g id="LR" transform="translate(154.000000, 1.000000)">
                        <g id="latex-eq" fill="#000000" fill-rule="nonzero">
                            <g id="Group" transform="translate(54.500000, 6.000000) scale(-1, 1) rotate(-180.000000) translate(-54.500000, -6.000000) ">
                                <path d="M1.428,11.076 C1.428,11.172 1.496,11.256 1.632,11.328 L1.86,11.328 C2.58,11.304 3.036,11.104 3.228,10.728 C3.276,10.608 3.504,9.976 3.912,8.832 C4.32,7.688 4.724,6.572 5.124,5.484 C5.524,4.396 5.724,3.836 5.724,3.804 C5.78,3.644 5.832,3.512 5.88,3.408 C5.928,3.304 5.964,3.228 5.988,3.18 C6.012,3.132 6.032,3.096 6.048,3.072 C6.064,3.048 6.08,3.032 6.096,3.024 C6.112,3.016 6.116,3 6.108,2.976 C6.1,2.952 6.076,2.916 6.036,2.868 L5.22,2.868 C5.02,2.98 4.892,3.096 4.836,3.216 C4.78,3.336 4.576,3.872 4.224,4.824 L3.684,6.324 L3.516,6.144 C3.412,6.016 3.224,5.796 2.952,5.484 C2.68,5.172 2.452,4.908 2.268,4.692 C2.068,4.46 1.82,4.172 1.524,3.828 C1.116,3.348 0.864,3.068 0.768,2.988 C0.672,2.908 0.56,2.864 0.432,2.856 C0.144,2.856 0,2.984 0,3.24 C0,3.376 0.056,3.504 0.168,3.624 C0.28,3.744 0.832,4.284 1.824,5.244 C2.064,5.476 2.332,5.736 2.628,6.024 C2.924,6.312 3.144,6.528 3.288,6.672 L3.492,6.864 C3.492,6.872 3.292,7.432 2.892,8.544 C2.492,9.656 2.276,10.256 2.244,10.344 C2.084,10.704 1.88,10.884 1.632,10.884 C1.496,10.884 1.428,10.948 1.428,11.076 Z" id="Shape"></path>
                                <g transform="translate(10.428000, 4.596000)" id="Shape">
                                    <path d="M0,2.568 C0,2.672 0.056,2.752 0.168,2.808 L7.812,2.808 C7.932,2.744 7.992,2.664 7.992,2.568 C7.992,2.48 7.936,2.404 7.824,2.34 L4.008,2.328 L0.192,2.328 C0.064,2.368 0,2.448 0,2.568 Z M0,0.24 C0,0.36 0.064,0.44 0.192,0.48 L7.824,0.48 C7.936,0.4 7.992,0.32 7.992,0.24 C7.992,0.136 7.932,0.056 7.812,0 L0.168,0 C0.056,0.056 0,0.136 0,0.24 Z"></path>
                                </g>
                                <g transform="translate(23.436000, 5.760000)" id="Shape">
                                    <path d="M0,0.0875 C0,0.0875 0,0.141666667 0,0.25 C0,0.358333333 0.056,0.441666667 0.168,0.5 L7.14,0.5 C7.26,0.433333333 7.32,0.35 7.32,0.25 C7.32,0.15 7.26,0.0666666667 7.14,0 L0.168,0 C0.056,0.0583333333 0,0.141666667 0,0.25 L0,0.0875 Z"></path>
                                </g>
                                <g transform="translate(32.136000, 2.868000)" id="Shape">
                                    <path d="M1.836,0 C1.292,0 0.852,0.18 0.516,0.54 C0.18,0.9 0.008,1.352 0,1.896 C0,2.696 0.292,3.44 0.876,4.128 C1.46,4.816 2.14,5.204 2.916,5.292 C2.924,5.3 3.484,5.304 4.596,5.304 L6.252,5.304 C6.26,5.296 6.272,5.288 6.288,5.28 C6.304,5.272 6.32,5.264 6.336,5.256 C6.352,5.248 6.364,5.24 6.372,5.232 C6.38,5.224 6.392,5.212 6.408,5.196 C6.424,5.18 6.432,5.172 6.432,5.172 C6.432,5.172 6.44,5.156 6.456,5.124 C6.472,5.092 6.476,5.076 6.468,5.076 C6.46,5.076 6.464,5.056 6.48,5.016 C6.496,4.976 6.5,4.952 6.492,4.944 C6.492,4.592 6.232,4.416 5.712,4.416 C5.656,4.416 5.588,4.416 5.508,4.416 C5.428,4.416 5.372,4.42 5.34,4.428 L4.62,4.428 L4.68,4.308 C4.824,4.004 4.896,3.664 4.896,3.288 C4.896,2.408 4.576,1.64 3.936,0.984 C3.296,0.328 2.596,0 1.836,0 Z M3.96,3.468 C3.96,4.108 3.62,4.428 2.94,4.428 C1.948,4.428 1.304,3.732 1.008,2.34 C1,2.308 0.996,2.284 0.996,2.268 C0.932,1.972 0.9,1.728 0.9,1.536 C0.9,1.136 1,0.856 1.2,0.696 C1.4,0.536 1.628,0.452 1.884,0.444 C2.316,0.444 2.712,0.632 3.072,1.008 C3.304,1.248 3.492,1.568 3.636,1.968 C3.78,2.368 3.868,2.688 3.9,2.928 C3.932,3.168 3.952,3.348 3.96,3.468 Z"></path>
                                </g>
                                <g transform="translate(39.756000, 0.000000)" id="Shape">
                                    <path d="M0,6 C0,6.552 0.04,7.076 0.12,7.572 C0.2,8.068 0.292,8.496 0.396,8.856 C0.5,9.216 0.648,9.568 0.84,9.912 C1.032,10.256 1.184,10.524 1.296,10.716 C1.408,10.908 1.576,11.116 1.8,11.34 C2.024,11.564 2.156,11.7 2.196,11.748 C2.236,11.796 2.336,11.88 2.496,12 L2.652,12 L2.7,12 C2.812,12 2.868,11.964 2.868,11.892 C2.868,11.868 2.8,11.784 2.664,11.64 C2.528,11.496 2.364,11.284 2.172,11.004 C1.98,10.724 1.784,10.38 1.584,9.972 C1.384,9.564 1.216,9.012 1.08,8.316 C0.944,7.62 0.876,6.848 0.876,6 C0.876,5.152 0.944,4.384 1.08,3.696 C1.216,3.008 1.38,2.452 1.572,2.028 C1.764,1.604 1.96,1.26 2.16,0.996 C2.36,0.732 2.528,0.52 2.664,0.36 C2.8,0.2 2.868,0.116 2.868,0.108 C2.868,0.036 2.808,0 2.688,0 L2.652,0 L2.496,0 L2.16,0.288 C1.408,0.968 0.86,1.816 0.516,2.832 C0.172,3.848 0,4.904 0,6 Z"></path>
                                </g>
                                <g transform="translate(43.704000, 2.868000)" id="Shape">
                                    <path d="M4.104,6.072 C4.104,6.2 4.104,6.36 4.104,6.552 C4.104,6.744 4.108,6.876 4.116,6.948 C4.116,7.308 4.076,7.532 3.996,7.62 C3.916,7.708 3.712,7.76 3.384,7.776 L3.168,7.776 L3.168,8.052 C3.168,8.236 3.176,8.328 3.192,8.328 L3.312,8.34 C3.392,8.348 3.508,8.356 3.66,8.364 C3.812,8.372 3.96,8.38 4.104,8.388 C4.24,8.396 4.388,8.404 4.548,8.412 C4.708,8.42 4.828,8.432 4.908,8.448 C4.988,8.464 5.032,8.468 5.04,8.46 L5.076,8.46 L5.076,4.812 C5.076,2.364 5.08,1.128 5.088,1.104 C5.112,0.944 5.168,0.84 5.256,0.792 C5.344,0.744 5.524,0.708 5.796,0.684 L6.012,0.684 L6.012,0.132 C5.996,0.132 5.692,0.112 5.1,0.072 C4.508,0.032 4.192,0.008 4.152,0 L4.068,0 L4.068,0.66 L3.972,0.576 C3.508,0.192 2.988,0 2.412,0 C1.796,0 1.24,0.244 0.744,0.732 C0.248,1.22 0,1.88 0,2.712 C0,3.512 0.252,4.164 0.756,4.668 C1.26,5.172 1.848,5.428 2.52,5.436 C3.12,5.436 3.648,5.24 4.104,4.848 L4.104,6.072 Z M4.068,4.236 C3.708,4.74 3.256,4.992 2.712,4.992 C2.32,4.992 1.972,4.848 1.668,4.56 C1.452,4.336 1.316,4.08 1.26,3.792 C1.204,3.504 1.172,3.128 1.164,2.664 C1.164,2.216 1.192,1.852 1.248,1.572 C1.304,1.292 1.444,1.048 1.668,0.84 C1.908,0.576 2.22,0.444 2.604,0.444 C3.172,0.444 3.66,0.752 4.068,1.368 L4.068,4.236 Z"></path>
                                    <path d="M7.092,7.44 C7.092,7.664 7.164,7.84 7.308,7.968 C7.452,8.096 7.628,8.16 7.836,8.16 C8.02,8.144 8.18,8.076 8.316,7.956 C8.452,7.836 8.52,7.664 8.52,7.44 C8.52,7.2 8.452,7.02 8.316,6.9 C8.18,6.78 8.012,6.72 7.812,6.72 C7.612,6.72 7.444,6.78 7.308,6.9 C7.172,7.02 7.1,7.2 7.092,7.44 Z M9.228,0.132 C9.108,0.156 8.692,0.168 7.98,0.168 C7.892,0.168 7.744,0.168 7.536,0.168 C7.328,0.168 7.128,0.16 6.936,0.144 L6.672,0.132 L6.576,0.132 L6.576,0.684 L6.768,0.684 C6.992,0.684 7.188,0.696 7.356,0.72 C7.428,0.752 7.472,0.796 7.488,0.852 C7.504,0.908 7.512,1.076 7.512,1.356 L7.512,2.592 L7.512,3.648 C7.512,4.064 7.504,4.328 7.488,4.44 C7.472,4.552 7.416,4.628 7.32,4.668 C7.208,4.724 7.02,4.752 6.756,4.752 L6.624,4.752 L6.624,5.028 C6.624,5.212 6.632,5.304 6.648,5.304 L6.768,5.316 C6.848,5.324 6.96,5.332 7.104,5.34 C7.248,5.348 7.392,5.356 7.536,5.364 C7.672,5.372 7.816,5.38 7.968,5.388 C8.12,5.396 8.236,5.408 8.316,5.424 C8.396,5.44 8.44,5.444 8.448,5.436 L8.484,5.436 L8.484,0.876 C8.524,0.796 8.572,0.748 8.628,0.732 C8.684,0.716 8.824,0.7 9.048,0.684 L9.324,0.684 L9.324,0.132 L9.228,0.132 Z"></path>
                                    <path d="M13.14,3.924 C13.14,4.244 13.032,4.52 12.816,4.752 C12.6,4.984 12.288,5.1 11.88,5.1 C11.592,5.1 11.344,5.048 11.136,4.944 C10.896,4.792 10.776,4.584 10.776,4.32 C10.768,4.28 10.768,4.228 10.776,4.164 C10.784,4.1 10.848,4.004 10.968,3.876 C11.088,3.748 11.26,3.648 11.484,3.576 C11.628,3.536 11.804,3.5 12.012,3.468 C12.22,3.436 12.396,3.4 12.54,3.36 C12.684,3.32 12.812,3.268 12.924,3.204 C13.06,3.14 13.192,3.06 13.32,2.964 C13.448,2.868 13.576,2.704 13.704,2.472 C13.832,2.24 13.9,1.992 13.908,1.728 C13.908,1.232 13.756,0.824 13.452,0.504 C13.148,0.184 12.656,0.02 11.976,0.012 L11.88,0.012 C11.464,0.012 11.08,0.156 10.728,0.444 L10.632,0.36 L10.524,0.252 C10.476,0.204 10.428,0.16 10.38,0.12 L10.248,0 L10.152,0 L10.104,0 C10.08,0 10.044,0.024 9.996,0.072 L9.996,1.02 L9.996,1.716 C9.996,1.884 10.004,1.984 10.02,2.016 C10.036,2.048 10.076,2.068 10.14,2.076 L10.248,2.076 C10.344,2.076 10.408,2.06 10.44,2.028 C10.472,1.996 10.492,1.948 10.5,1.884 C10.508,1.82 10.536,1.712 10.584,1.56 C10.632,1.408 10.708,1.24 10.812,1.056 C11.092,0.648 11.48,0.444 11.976,0.444 C12.752,0.444 13.14,0.756 13.14,1.38 C13.14,1.612 13.068,1.8 12.924,1.944 C12.764,2.136 12.432,2.28 11.928,2.376 C11.424,2.472 11.092,2.564 10.932,2.652 C10.644,2.788 10.416,2.972 10.248,3.204 C10.08,3.436 9.996,3.684 9.996,3.948 C9.996,4.26 10.064,4.524 10.2,4.74 C10.336,4.956 10.508,5.116 10.716,5.22 C10.924,5.324 11.124,5.396 11.316,5.436 C11.508,5.476 11.684,5.496 11.844,5.496 L11.976,5.496 C12.296,5.496 12.576,5.436 12.816,5.316 L12.996,5.22 L13.104,5.304 C13.184,5.376 13.272,5.444 13.368,5.508 L13.464,5.508 L13.512,5.508 C13.536,5.508 13.572,5.484 13.62,5.436 L13.62,3.852 L13.548,3.78 L13.212,3.78 C13.164,3.828 13.14,3.876 13.14,3.924 Z"></path>
                                    <path d="M14.652,5.196 C15.076,5.228 15.404,5.452 15.636,5.868 C15.868,6.284 15.996,6.772 16.02,7.332 L16.02,7.512 L16.5,7.512 L16.5,5.304 L18.12,5.304 L18.12,4.752 L16.5,4.752 L16.5,3.024 C16.508,2.024 16.512,1.46 16.512,1.332 C16.512,1.204 16.54,1.076 16.596,0.948 C16.708,0.636 16.904,0.48 17.184,0.48 C17.536,0.48 17.752,0.764 17.832,1.332 C17.84,1.396 17.844,1.58 17.844,1.884 L17.844,2.304 L18.324,2.304 L18.324,1.884 L18.324,1.74 C18.324,1.124 18.156,0.656 17.82,0.336 C17.604,0.12 17.324,0.012 16.98,0.012 C16.708,0.012 16.472,0.06 16.272,0.156 C16.072,0.252 15.92,0.376 15.816,0.528 C15.712,0.68 15.636,0.82 15.588,0.948 C15.54,1.076 15.512,1.204 15.504,1.332 C15.496,1.388 15.492,1.98 15.492,3.108 L15.492,4.752 L14.544,4.752 L14.544,5.196 L14.652,5.196 Z"></path>
                                </g>
                                <g transform="translate(63.828000, 0.000000)" id="Shape">
                                    <path d="M0,6 C0,6.552 0.04,7.076 0.12,7.572 C0.2,8.068 0.292,8.496 0.396,8.856 C0.5,9.216 0.648,9.568 0.84,9.912 C1.032,10.256 1.184,10.524 1.296,10.716 C1.408,10.908 1.576,11.116 1.8,11.34 C2.024,11.564 2.156,11.7 2.196,11.748 C2.236,11.796 2.336,11.88 2.496,12 L2.652,12 L2.7,12 C2.812,12 2.868,11.964 2.868,11.892 C2.868,11.868 2.8,11.784 2.664,11.64 C2.528,11.496 2.364,11.284 2.172,11.004 C1.98,10.724 1.784,10.38 1.584,9.972 C1.384,9.564 1.216,9.012 1.08,8.316 C0.944,7.62 0.876,6.848 0.876,6 C0.876,5.152 0.944,4.384 1.08,3.696 C1.216,3.008 1.38,2.452 1.572,2.028 C1.764,1.604 1.96,1.26 2.16,0.996 C2.36,0.732 2.528,0.52 2.664,0.36 C2.8,0.2 2.868,0.116 2.868,0.108 C2.868,0.036 2.808,0 2.688,0 L2.652,0 L2.496,0 L2.16,0.288 C1.408,0.968 0.86,1.816 0.516,2.832 C0.172,3.848 0,4.904 0,6 Z"></path>
                                </g>
                                <g transform="translate(83.304000, 0.660000)" id="Shape">
                                    <path d="M0,2.76 C0,2.76 0,2.86 0,3.06 C0,3.26 0.064,3.432 0.192,3.576 C0.32,3.72 0.492,3.792 0.708,3.792 C0.932,3.792 1.132,3.692 1.308,3.492 C1.484,3.292 1.576,2.94 1.584,2.436 C1.584,2.156 1.548,1.884 1.476,1.62 C1.404,1.356 1.32,1.128 1.224,0.936 C1.128,0.744 1.024,0.58 0.912,0.444 C0.8,0.308 0.704,0.2 0.624,0.12 C0.544,0.04 0.492,0.004 0.468,0.012 C0.436,0.012 0.384,0.048 0.312,0.12 C0.24,0.192 0.204,0.244 0.204,0.276 C0.204,0.308 0.248,0.372 0.336,0.468 C0.424,0.564 0.524,0.684 0.636,0.828 C0.748,0.972 0.852,1.172 0.948,1.428 C1.044,1.684 1.108,1.976 1.14,2.304 L1.14,2.448 L1.128,2.436 C1.112,2.428 1.092,2.42 1.068,2.412 C1.044,2.404 1.02,2.392 0.996,2.376 C0.972,2.36 0.936,2.352 0.888,2.352 C0.84,2.352 0.792,2.348 0.744,2.34 C0.528,2.34 0.352,2.408 0.216,2.544 L0,2.76 Z"></path>
                                </g>
                                <g transform="translate(100.368000, 0.000000)" id="Shape">
                                    <path d="M0.06,11.988 L0.108,12 C0.148,12 0.188,12 0.228,12 L0.372,12 L0.708,11.712 C1.46,11.032 2.008,10.184 2.352,9.168 C2.696,8.152 2.868,7.096 2.868,6 C2.868,5.456 2.828,4.932 2.748,4.428 C2.668,3.924 2.576,3.496 2.472,3.144 C2.368,2.792 2.22,2.44 2.028,2.088 C1.836,1.736 1.684,1.468 1.572,1.284 C1.46,1.1 1.296,0.896 1.08,0.672 C0.864,0.448 0.736,0.316 0.696,0.276 C0.656,0.236 0.564,0.16 0.42,0.048 C0.396,0.024 0.38,0.008 0.372,0 L0.228,0 C0.164,0 0.12,0 0.096,0 C0.072,0 0.052,0.012 0.036,0.036 C0.02,0.06 0.008,0.096 0,0.144 C0.008,0.152 0.052,0.204 0.132,0.3 C1.372,1.588 1.992,3.488 1.992,6 C1.992,8.512 1.372,10.412 0.132,11.7 C0.052,11.796 0.008,11.848 0,11.856 C0,11.92 0.02,11.964 0.06,11.988 Z"></path>
                                </g>
                                <g transform="translate(105.036000, 0.000000)" id="Shape">
                                    <path d="M0.06,11.988 L0.108,12 C0.148,12 0.188,12 0.228,12 L0.372,12 L0.708,11.712 C1.46,11.032 2.008,10.184 2.352,9.168 C2.696,8.152 2.868,7.096 2.868,6 C2.868,5.456 2.828,4.932 2.748,4.428 C2.668,3.924 2.576,3.496 2.472,3.144 C2.368,2.792 2.22,2.44 2.028,2.088 C1.836,1.736 1.684,1.468 1.572,1.284 C1.46,1.1 1.296,0.896 1.08,0.672 C0.864,0.448 0.736,0.316 0.696,0.276 C0.656,0.236 0.564,0.16 0.42,0.048 C0.396,0.024 0.38,0.008 0.372,0 L0.228,0 C0.164,0 0.12,0 0.096,0 C0.072,0 0.052,0.012 0.036,0.036 C0.02,0.06 0.008,0.096 0,0.144 C0.008,0.152 0.052,0.204 0.132,0.3 C1.372,1.588 1.992,3.488 1.992,6 C1.992,8.512 1.372,10.412 0.132,11.7 C0.052,11.796 0.008,11.848 0,11.856 C0,11.92 0.02,11.964 0.06,11.988 Z"></path>
                                </g>
                            </g>
                        </g>
                        <g id="Start-State" transform="translate(68.500000, 0.000000)">
                            <g id="Rectangle-2">
                                <use fill="#AC6670" fill-rule="evenodd" xlink:href="#path-58"></use>
                                <rect stroke="#AC6670" stroke-width="1" x="0.5" y="0.5" width="11" height="11"></rect>
                            </g>
                            <rect id="Rectangle-2" stroke="#000000" opacity="0.394984149" x="0.5" y="0.5" width="11" height="11"></rect>
                        </g>
                        <g id="Start-State" transform="translate(87.000000, 0.000000)">
                            <g id="Rectangle-2">
                                <use fill="#AC6670" fill-rule="evenodd" xlink:href="#path-59"></use>
                                <rect stroke="#AC6670" stroke-width="1" x="0.5" y="0.5" width="11" height="11"></rect>
                            </g>
                            <rect id="Rectangle-2" stroke="#000000" opacity="0.394984149" x="0.5" y="0.5" width="11" height="11"></rect>
                        </g>
                    </g>
                </g>
                <g id="Group-2" transform="translate(102.000000, 216.000000)">
                    <g id="Data-Point-+" transform="translate(5.000000, 5.000000)">
                        <g id="Data-Point" filter="url(#filter-60)">
                            <g id="Task">
                                <rect id="Rectangle" fill="#AC6670" x="0" y="0" width="28" height="28"></rect>
                                <g transform="translate(7.000000, 4.000000)" stroke="#FFFFFF" stroke-width="1.3">
                                    <path d="M9.07645577,3 L12,3 C12.5522847,3 13,3.44771525 13,4 L13,17 C13,17.5522847 12.5522847,18 12,18 L2,18 C1.44771525,18 1,17.5522847 1,17 L1,4 C1,3.44771525 1.44771525,3 2,3 L5.02579406,3" id="Rectangle"></path>
                                    <rect id="Rectangle-2" x="5" y="1" width="4" height="4" rx="1"></rect>
                                    <polyline id="Path-2" stroke-linecap="round" stroke-linejoin="round" points="4 10.6936955 6.528165 13.3873911 10.2313965 7.99911022"></polyline>
                                </g>
                                <circle id="Oval" stroke="#AC6670" fill="#FFFFFF" cx="19" cy="21" r="4"></circle>
                                <text id="C" font-family="Avenir-Black, Avenir" font-size="5" font-weight="700" fill="#AC6670">
                                    <tspan x="17.0875031" y="22.75">C</tspan>
                                </text>
                            </g>
                            <g id="Traj" transform="translate(28.000000, 0.000000)">
                                <rect id="Rectangle-3" fill="#DFDFDF" x="0" y="0" width="75" height="28"></rect>
                                <g id="Rectangle-2-Copy-10">
                                    <use fill="#7B7A7A" fill-rule="evenodd" xlink:href="#path-61"></use>
                                    <rect stroke="#1D1D1D" stroke-width="1" x="55.5" y="8.5" width="11" height="11"></rect>
                                </g>
                                <g id="Rectangle-2-Copy">
                                    <use fill="#7B7A7A" fill-rule="evenodd" xlink:href="#path-62"></use>
                                    <rect stroke="#1D1D1D" stroke-width="1" x="22.5" y="8.5" width="11" height="11"></rect>
                                </g>
                                <g id="Rectangle-2">
                                    <use fill="#7B7A7A" fill-rule="evenodd" xlink:href="#path-63"></use>
                                    <rect stroke="#1D1D1D" stroke-width="1" x="8.5" y="8.5" width="11" height="11"></rect>
                                </g>
                                <circle id="Oval-2" fill="#1D1D1D" cx="39.5" cy="14" r="1.5"></circle>
                                <circle id="Oval-2" fill="#1D1D1D" cx="44.5" cy="14" r="1.5"></circle>
                                <circle id="Oval-2" fill="#1D1D1D" cx="49.5" cy="14" r="1.5"></circle>
                            </g>
                        </g>
                        <g id="LR" transform="translate(103.000000, 0.000000)">
                            <g id="Rectangle-5">
                                <use fill="black" fill-opacity="1" filter="url(#filter-65)" xlink:href="#path-64"></use>
                                <use fill="#1D1D1D" fill-rule="evenodd" xlink:href="#path-64"></use>
                            </g>
                            <circle id="Oval-3" fill="#FFFFFF" cx="14" cy="14" r="9"></circle>
                            <path d="M12.428,17.72 C12.428,17.816 12.496,17.9 12.632,17.972 L12.86,17.972 C13.58,17.948 14.036,17.748 14.228,17.372 C14.276,17.252 14.504,16.62 14.912,15.476 C15.32,14.332 15.724,13.216 16.124,12.128 C16.524,11.04 16.724,10.48 16.724,10.448 C16.78,10.288 16.832,10.156 16.88,10.052 C16.928,9.948 16.964,9.872 16.988,9.824 C17.012,9.776 17.032,9.74 17.048,9.716 C17.064,9.692 17.08,9.676 17.096,9.668 C17.112,9.66 17.116,9.644 17.108,9.62 C17.1,9.596 17.076,9.56 17.036,9.512 L16.22,9.512 C16.02,9.624 15.892,9.74 15.836,9.86 C15.78,9.98 15.576,10.516 15.224,11.468 L14.684,12.968 L14.516,12.788 C14.412,12.66 14.224,12.44 13.952,12.128 C13.68,11.816 13.452,11.552 13.268,11.336 C13.068,11.104 12.82,10.816 12.524,10.472 C12.116,9.992 11.864,9.712 11.768,9.632 C11.672,9.552 11.56,9.508 11.432,9.5 C11.144,9.5 11,9.628 11,9.884 C11,10.02 11.056,10.148 11.168,10.268 C11.28,10.388 11.832,10.928 12.824,11.888 C13.064,12.12 13.332,12.38 13.628,12.668 C13.924,12.956 14.144,13.172 14.288,13.316 L14.492,13.508 C14.492,13.516 14.292,14.076 13.892,15.188 C13.492,16.3 13.276,16.9 13.244,16.988 C13.084,17.348 12.88,17.528 12.632,17.528 C12.496,17.528 12.428,17.592 12.428,17.72 Z" id="Shape" fill="#1D1D1D" fill-rule="nonzero" transform="translate(14.056000, 13.736000) scale(1, -1) translate(-14.056000, -13.736000) "></path>
                        </g>
                    </g>
                    <g id="Data-Point-+" transform="translate(2.500000, 2.500000)">
                        <g id="Data-Point" filter="url(#filter-66)">
                            <g id="Task">
                                <rect id="Rectangle" fill="#AC6670" x="0" y="0" width="28" height="28"></rect>
                                <g transform="translate(7.000000, 4.000000)" stroke="#FFFFFF" stroke-width="1.3">
                                    <path d="M9.07645577,3 L12,3 C12.5522847,3 13,3.44771525 13,4 L13,17 C13,17.5522847 12.5522847,18 12,18 L2,18 C1.44771525,18 1,17.5522847 1,17 L1,4 C1,3.44771525 1.44771525,3 2,3 L5.02579406,3" id="Rectangle"></path>
                                    <rect id="Rectangle-2" x="5" y="1" width="4" height="4" rx="1"></rect>
                                    <polyline id="Path-2" stroke-linecap="round" stroke-linejoin="round" points="4 10.6936955 6.528165 13.3873911 10.2313965 7.99911022"></polyline>
                                </g>
                                <circle id="Oval" stroke="#AC6670" fill="#FFFFFF" cx="19" cy="21" r="4"></circle>
                                <text id="C" font-family="Avenir-Black, Avenir" font-size="5" font-weight="700" fill="#AC6670">
                                    <tspan x="17.0875031" y="22.75">C</tspan>
                                </text>
                            </g>
                            <g id="Traj" transform="translate(28.000000, 0.000000)">
                                <rect id="Rectangle-3" fill="#DFDFDF" x="0" y="0" width="75" height="28"></rect>
                                <g id="Rectangle-2-Copy-10">
                                    <use fill="#7B7A7A" fill-rule="evenodd" xlink:href="#path-67"></use>
                                    <rect stroke="#1D1D1D" stroke-width="1" x="55.5" y="8.5" width="11" height="11"></rect>
                                </g>
                                <g id="Rectangle-2-Copy">
                                    <use fill="#7B7A7A" fill-rule="evenodd" xlink:href="#path-68"></use>
                                    <rect stroke="#1D1D1D" stroke-width="1" x="22.5" y="8.5" width="11" height="11"></rect>
                                </g>
                                <g id="Rectangle-2">
                                    <use fill="#7B7A7A" fill-rule="evenodd" xlink:href="#path-69"></use>
                                    <rect stroke="#1D1D1D" stroke-width="1" x="8.5" y="8.5" width="11" height="11"></rect>
                                </g>
                                <circle id="Oval-2" fill="#1D1D1D" cx="39.5" cy="14" r="1.5"></circle>
                                <circle id="Oval-2" fill="#1D1D1D" cx="44.5" cy="14" r="1.5"></circle>
                                <circle id="Oval-2" fill="#1D1D1D" cx="49.5" cy="14" r="1.5"></circle>
                            </g>
                        </g>
                        <g id="LR" transform="translate(103.000000, 0.000000)">
                            <g id="Rectangle-5">
                                <use fill="black" fill-opacity="1" filter="url(#filter-71)" xlink:href="#path-70"></use>
                                <use fill="#1D1D1D" fill-rule="evenodd" xlink:href="#path-70"></use>
                            </g>
                            <circle id="Oval-3" fill="#FFFFFF" cx="14" cy="14" r="9"></circle>
                            <path d="M12.428,17.72 C12.428,17.816 12.496,17.9 12.632,17.972 L12.86,17.972 C13.58,17.948 14.036,17.748 14.228,17.372 C14.276,17.252 14.504,16.62 14.912,15.476 C15.32,14.332 15.724,13.216 16.124,12.128 C16.524,11.04 16.724,10.48 16.724,10.448 C16.78,10.288 16.832,10.156 16.88,10.052 C16.928,9.948 16.964,9.872 16.988,9.824 C17.012,9.776 17.032,9.74 17.048,9.716 C17.064,9.692 17.08,9.676 17.096,9.668 C17.112,9.66 17.116,9.644 17.108,9.62 C17.1,9.596 17.076,9.56 17.036,9.512 L16.22,9.512 C16.02,9.624 15.892,9.74 15.836,9.86 C15.78,9.98 15.576,10.516 15.224,11.468 L14.684,12.968 L14.516,12.788 C14.412,12.66 14.224,12.44 13.952,12.128 C13.68,11.816 13.452,11.552 13.268,11.336 C13.068,11.104 12.82,10.816 12.524,10.472 C12.116,9.992 11.864,9.712 11.768,9.632 C11.672,9.552 11.56,9.508 11.432,9.5 C11.144,9.5 11,9.628 11,9.884 C11,10.02 11.056,10.148 11.168,10.268 C11.28,10.388 11.832,10.928 12.824,11.888 C13.064,12.12 13.332,12.38 13.628,12.668 C13.924,12.956 14.144,13.172 14.288,13.316 L14.492,13.508 C14.492,13.516 14.292,14.076 13.892,15.188 C13.492,16.3 13.276,16.9 13.244,16.988 C13.084,17.348 12.88,17.528 12.632,17.528 C12.496,17.528 12.428,17.592 12.428,17.72 Z" id="Shape" fill="#1D1D1D" fill-rule="nonzero" transform="translate(14.056000, 13.736000) scale(1, -1) translate(-14.056000, -13.736000) "></path>
                        </g>
                    </g>
                    <g id="Data-Point-+">
                        <g id="Data-Point" filter="url(#filter-72)">
                            <g id="Task">
                                <rect id="Rectangle" fill="#AC6670" x="0" y="0" width="28" height="28"></rect>
                                <g transform="translate(7.000000, 4.000000)" stroke="#FFFFFF" stroke-width="1.3">
                                    <path d="M9.07645577,3 L12,3 C12.5522847,3 13,3.44771525 13,4 L13,17 C13,17.5522847 12.5522847,18 12,18 L2,18 C1.44771525,18 1,17.5522847 1,17 L1,4 C1,3.44771525 1.44771525,3 2,3 L5.02579406,3" id="Rectangle"></path>
                                    <rect id="Rectangle-2" x="5" y="1" width="4" height="4" rx="1"></rect>
                                    <polyline id="Path-2" stroke-linecap="round" stroke-linejoin="round" points="4 10.6936955 6.528165 13.3873911 10.2313965 7.99911022"></polyline>
                                </g>
                                <circle id="Oval" stroke="#AC6670" fill="#FFFFFF" cx="19" cy="21" r="4"></circle>
                                <text id="C" font-family="Avenir-Black, Avenir" font-size="5" font-weight="700" fill="#AC6670">
                                    <tspan x="17.0875031" y="22.75">C</tspan>
                                </text>
                            </g>
                            <g id="Traj" transform="translate(28.000000, 0.000000)">
                                <rect id="Rectangle-3" fill="#DFDFDF" x="0" y="0" width="75" height="28"></rect>
                                <g id="Rectangle-2-Copy-10">
                                    <use fill="#7B7A7A" fill-rule="evenodd" xlink:href="#path-73"></use>
                                    <rect stroke="#1D1D1D" stroke-width="1" x="55.5" y="8.5" width="11" height="11"></rect>
                                </g>
                                <g id="Rectangle-2-Copy">
                                    <use fill="#7B7A7A" fill-rule="evenodd" xlink:href="#path-74"></use>
                                    <rect stroke="#1D1D1D" stroke-width="1" x="22.5" y="8.5" width="11" height="11"></rect>
                                </g>
                                <g id="Rectangle-2">
                                    <use fill="#7B7A7A" fill-rule="evenodd" xlink:href="#path-75"></use>
                                    <rect stroke="#1D1D1D" stroke-width="1" x="8.5" y="8.5" width="11" height="11"></rect>
                                </g>
                                <circle id="Oval-2" fill="#1D1D1D" cx="39.5" cy="14" r="1.5"></circle>
                                <circle id="Oval-2" fill="#1D1D1D" cx="44.5" cy="14" r="1.5"></circle>
                                <circle id="Oval-2" fill="#1D1D1D" cx="49.5" cy="14" r="1.5"></circle>
                            </g>
                        </g>
                        <g id="LR" transform="translate(103.000000, 0.000000)">
                            <g id="Rectangle-5">
                                <use fill="black" fill-opacity="1" filter="url(#filter-77)" xlink:href="#path-76"></use>
                                <use fill="#1D1D1D" fill-rule="evenodd" xlink:href="#path-76"></use>
                            </g>
                            <circle id="Oval-3" fill="#FFFFFF" cx="14" cy="14" r="9"></circle>
                            <path d="M12.428,17.72 C12.428,17.816 12.496,17.9 12.632,17.972 L12.86,17.972 C13.58,17.948 14.036,17.748 14.228,17.372 C14.276,17.252 14.504,16.62 14.912,15.476 C15.32,14.332 15.724,13.216 16.124,12.128 C16.524,11.04 16.724,10.48 16.724,10.448 C16.78,10.288 16.832,10.156 16.88,10.052 C16.928,9.948 16.964,9.872 16.988,9.824 C17.012,9.776 17.032,9.74 17.048,9.716 C17.064,9.692 17.08,9.676 17.096,9.668 C17.112,9.66 17.116,9.644 17.108,9.62 C17.1,9.596 17.076,9.56 17.036,9.512 L16.22,9.512 C16.02,9.624 15.892,9.74 15.836,9.86 C15.78,9.98 15.576,10.516 15.224,11.468 L14.684,12.968 L14.516,12.788 C14.412,12.66 14.224,12.44 13.952,12.128 C13.68,11.816 13.452,11.552 13.268,11.336 C13.068,11.104 12.82,10.816 12.524,10.472 C12.116,9.992 11.864,9.712 11.768,9.632 C11.672,9.552 11.56,9.508 11.432,9.5 C11.144,9.5 11,9.628 11,9.884 C11,10.02 11.056,10.148 11.168,10.268 C11.28,10.388 11.832,10.928 12.824,11.888 C13.064,12.12 13.332,12.38 13.628,12.668 C13.924,12.956 14.144,13.172 14.288,13.316 L14.492,13.508 C14.492,13.516 14.292,14.076 13.892,15.188 C13.492,16.3 13.276,16.9 13.244,16.988 C13.084,17.348 12.88,17.528 12.632,17.528 C12.496,17.528 12.428,17.592 12.428,17.72 Z" id="Shape" fill="#1D1D1D" fill-rule="nonzero" transform="translate(14.056000, 13.736000) scale(1, -1) translate(-14.056000, -13.736000) "></path>
                        </g>
                    </g>
                </g>
                <g id="latex-eq" transform="translate(54.000000, 12.500000)" fill="#000000" fill-rule="nonzero">
                    <g id="Group" transform="translate(6.000000, 5.000000) scale(-1, 1) rotate(-180.000000) translate(-6.000000, -5.000000) ">
                        <path d="M3.85534684,9.00255532 C3.85534684,9.06945329 3.56695476,9.11245912 2.99017058,9.13157283 C2.75743311,9.13157283 2.6056478,9.13635126 2.53481466,9.14590811 C2.46398151,9.15546496 2.42856494,9.1984708 2.42856494,9.27492562 C2.42856494,9.35138044 2.44880298,9.44694897 2.48927906,9.5616312 C2.52975515,9.67631344 2.56517172,9.74798983 2.59552878,9.77666039 C2.61576682,9.78621724 3.62260937,9.79099567 5.61605643,9.79099567 C7.30593286,9.78143882 8.25206129,9.77666039 8.4544417,9.77666039 C8.65682211,9.77666039 8.85920253,9.74798983 9.06158294,9.69064872 C9.79015242,9.52818222 10.4074127,9.15068653 10.9133637,8.55816166 C11.4193147,7.96563679 11.6773498,7.17241801 11.6874688,6.17850532 C11.6874688,4.68763629 11.1461012,3.3496769 10.063366,2.16462715 C8.98063077,0.97957741 7.70563418,0.272370304 6.23837619,0.0430058375 L6.02587676,0.0143352792 L3.08124177,0 L1.39642484,0 L0.591962704,0 C0.34910621,0 0.192261391,0.00955685278 0.121428247,0.0286705583 C0.0505951029,0.0477842639 0.0101190206,0.0907901014 0,0.157688071 C0,0.176801776 0.0151785309,0.243699746 0.0455355926,0.358381979 C0.086011675,0.511291624 0.126487757,0.597303299 0.16696384,0.616417004 C0.207439922,0.63553071 0.323808659,0.649865989 0.51607005,0.659422842 C0.789283606,0.659422842 1.09285422,0.673758121 1.4267819,0.702428679 C1.56844819,0.731099238 1.66457889,0.788440354 1.71517399,0.874452029 C1.74553105,0.91267944 2.10981579,2.24108198 2.80802821,4.85965964 C3.50624063,7.4782373 3.85534684,8.85920253 3.85534684,9.00255532 Z M10.1696157,6.72324593 C10.1696157,7.08640633 10.1139611,7.41133933 10.0026519,7.69804491 C9.89134263,7.9847505 9.75979536,8.20933654 9.60801005,8.37180303 C9.45622474,8.53426953 9.26902286,8.6728439 9.04640441,8.78752613 C8.82378595,8.90220836 8.62646505,8.97866318 8.4544417,9.0168906 C8.28241835,9.05511801 8.10533549,9.08856699 7.92319312,9.11723755 C7.90295508,9.11723755 7.83212194,9.11723755 7.71069369,9.11723755 C7.58926544,9.11723755 7.44253964,9.11723755 7.27051629,9.11723755 C7.09849294,9.11723755 6.9315291,9.12201598 6.76962477,9.13157283 L6.11694795,9.13157283 C5.67171104,9.13157283 5.41873553,9.08378857 5.3580214,8.98822004 C5.33778336,8.94999263 4.96843911,7.57380583 4.24998865,4.85965964 C3.53153819,2.14551345 3.17231295,0.774105075 3.17231295,0.745434517 C3.17231295,0.707207106 3.22796757,0.6880934 3.33927679,0.6880934 C3.45058602,0.6880934 3.84016831,0.683314974 4.50802367,0.673758121 C4.55861878,0.673758121 4.65474947,0.673758121 4.79641576,0.673758121 C4.93808205,0.673758121 5.05951029,0.668979694 5.1607005,0.659422842 C6.43569709,0.659422842 7.48807524,1.05125381 8.31783492,1.83491573 C8.68211966,2.17896243 8.98063077,2.58035025 9.21336825,3.03907918 C9.44610572,3.49780812 9.66366466,4.10466827 9.86604507,4.85965964 C10.0684255,5.61465101 10.1696157,6.23584644 10.1696157,6.72324593 Z" id="Shape"></path>
                    </g>
                </g>
                <g id="latex-eq" transform="translate(65.000000, 226.000000)" fill="#000000" fill-rule="nonzero">
                    <g id="Group" transform="translate(14.500000, 6.500000) scale(-1, 1) rotate(-180.000000) translate(-14.500000, -6.500000) ">
                        <path d="M3.70711757,11.6086748 C3.70711757,11.6764768 3.4298135,11.7200639 2.87520536,11.7394359 C2.65141611,11.7394359 2.5054666,11.7442789 2.43735683,11.7539649 C2.36924706,11.7636509 2.33519217,11.8072379 2.33519217,11.8847259 C2.33519217,11.9622139 2.3546521,12.059074 2.39357197,12.175306 C2.43249184,12.2915381 2.46654673,12.3641831 2.49573663,12.3932411 C2.51519657,12.4029271 3.48332832,12.4077701 5.40013189,12.4077701 C7.02503644,12.3980841 7.93478839,12.3932411 8.12938774,12.3932411 C8.32398709,12.3932411 8.51858644,12.3641831 8.71318578,12.3060671 C9.41374343,12.141405 10.0072714,11.7588079 10.4937698,11.1582757 C10.9802682,10.5577435 11.2283823,9.75380522 11.2381123,8.74646088 C11.2381123,7.23544439 10.7175591,5.87940394 9.67645255,4.67833954 C8.63534604,3.47727515 7.40937016,2.76051091 5.99852489,2.52804683 L5.79419557,2.49898882 L2.96277507,2.48445982 L1.3427355,2.48445982 L0.569203091,2.48445982 C0.335683874,2.48445982 0.18486938,2.49414582 0.116759608,2.51351783 C0.0486498369,2.53288984 0.00972996737,2.57647685 0,2.64427887 C0,2.66365088 0.0145949511,2.7314529 0.0437848532,2.84768494 C0.0827047227,3.00266099 0.121624592,3.08983502 0.160544462,3.10920703 C0.199464331,3.12857903 0.311358956,3.14310804 0.496228336,3.15279404 C0.758937455,3.15279404 1.05083648,3.16732304 1.3719254,3.19638105 C1.50814494,3.22543906 1.60057963,3.28355508 1.64922947,3.37072911 C1.67841937,3.40947312 2.0286982,4.75582757 2.70006595,7.40979244 C3.3714337,10.0637573 3.70711757,11.4633848 3.70711757,11.6086748 Z M9.77861721,9.29856307 C9.77861721,9.66663119 9.72510239,9.9959553 9.61807275,10.2865354 C9.51104311,10.5771155 9.38455353,10.8047366 9.23860402,10.9693986 C9.09265451,11.1340607 8.91265011,11.2745077 8.69859083,11.3907398 C8.48453155,11.5069718 8.29479719,11.5844598 8.12938774,11.6232038 C7.9639783,11.6619478 7.79370387,11.6958489 7.61856445,11.7249069 C7.59910452,11.7249069 7.53099475,11.7249069 7.41423514,11.7249069 C7.29747553,11.7249069 7.156391,11.7249069 6.99098156,11.7249069 C6.82557211,11.7249069 6.66502765,11.7297499 6.50934817,11.7394359 L5.88176528,11.7394359 C5.45364671,11.7394359 5.21039753,11.6910059 5.15201772,11.5941458 C5.13255779,11.5554018 4.77741398,10.1606173 4.0865863,7.40979244 C3.39575861,4.65896754 3.05034477,3.26902608 3.05034477,3.23996807 C3.05034477,3.20122406 3.10385959,3.18185205 3.21088923,3.18185205 C3.31791887,3.18185205 3.69252262,3.17700905 4.33470047,3.16732304 C4.3833503,3.16732304 4.47578499,3.16732304 4.61200454,3.16732304 C4.74822408,3.16732304 4.86498369,3.16248004 4.96228336,3.15279404 C6.18825925,3.15279404 7.20017586,3.54992017 7.99803318,4.34417243 C8.34831201,4.69286855 8.63534604,5.09968068 8.85913529,5.56460883 C9.08292454,6.02953699 9.29211884,6.64459819 9.48671819,7.40979244 C9.68131754,8.1749867 9.77861721,8.8045769 9.77861721,9.29856307 Z" id="Shape"></path>
                        <g transform="translate(11.909480, 0.000000)" id="Shape">
                            <path d="M2.04615376,6.77573214 C1.8122648,6.77573214 1.68844124,6.78942815 1.67468306,6.81682017 C1.66780398,6.83051618 1.66436443,6.8579082 1.66436443,6.89899622 C1.66436443,7.06334832 1.70219941,7.17634039 1.77786937,7.23797243 C1.79162754,7.24482044 1.85009978,7.24824444 1.95328609,7.24824444 C2.23532865,7.23454843 2.70310656,7.22770043 3.35661982,7.22770043 C3.59050878,7.22770043 3.80720001,7.22770043 4.00669353,7.22770043 C4.20618706,7.22770043 4.36096651,7.23112443 4.4710319,7.23797243 C4.58109729,7.24482044 4.64988816,7.24482044 4.67740451,7.23797243 C4.7874699,7.23797243 4.8425026,7.20373241 4.8425026,7.13525237 C4.8425026,7.12155636 4.83562351,7.07362033 4.82186534,6.99144428 C4.7874699,6.87502821 4.75307447,6.80654816 4.71867903,6.78600415 L4.69804177,6.78600415 C4.6842836,6.78600415 4.66708588,6.78600415 4.64644862,6.78600415 C4.62581136,6.78600415 4.60173455,6.78600415 4.57421821,6.78600415 C4.54670186,6.78600415 4.51574597,6.78258015 4.48135053,6.77573214 C4.4469551,6.76888414 4.41599921,6.76888414 4.38848286,6.77573214 C4.12019847,6.76888414 3.9482213,6.75861213 3.87255134,6.74491613 C3.79688138,6.73122012 3.7349696,6.69355609 3.68681599,6.63192406 C3.66617873,6.60453204 3.55611334,6.18337978 3.35661982,5.36846727 C3.30846621,5.19041916 3.25687306,4.99182704 3.20184036,4.7726909 C3.14680767,4.55355476 3.10553315,4.39262666 3.0780168,4.2899066 L3.03674228,4.1358265 C3.03674228,4.12213049 3.53547608,4.11528249 4.53294369,4.11528249 L6.02914509,4.11528249 L6.03946372,4.14609851 C6.03946372,4.16664252 6.14608957,4.58779478 6.35934127,5.4095553 C6.5519557,6.19707578 6.64826292,6.61822805 6.64826292,6.67301208 C6.64826292,6.72779611 6.45220894,6.76203614 6.06010098,6.77573214 C5.90188199,6.77573214 5.79869568,6.78258015 5.75054207,6.79627616 C5.70238846,6.80997217 5.67831166,6.84078819 5.67831166,6.88872422 C5.67831166,6.90242022 5.68519075,6.94350825 5.69894892,7.01198829 C5.72646527,7.12840436 5.74710253,7.1934604 5.7608607,7.20715641 C5.77461888,7.22085242 5.82965157,7.23112443 5.92595879,7.23797243 C5.96035422,7.23797243 6.10481505,7.23454843 6.35934127,7.22770043 C6.61386748,7.22085242 6.93718457,7.21742842 7.32929252,7.21742842 C7.75579591,7.21742842 8.08255254,7.22085242 8.30956241,7.22770043 C8.53657228,7.23454843 8.66039585,7.23797243 8.68103311,7.23797243 C8.79797758,7.23797243 8.85644982,7.20373241 8.85644982,7.13525237 C8.85644982,6.95035625 8.8151753,6.83394018 8.73262626,6.78600415 L8.711989,6.78600415 C8.69823082,6.78600415 8.68103311,6.78600415 8.66039585,6.78600415 C8.63975858,6.78600415 8.61568178,6.78600415 8.58816543,6.78600415 C8.56064908,6.78600415 8.52969319,6.78258015 8.49529776,6.77573214 C8.46090232,6.76888414 8.42994643,6.76888414 8.40243009,6.77573214 C8.13414569,6.76888414 7.96216852,6.75861213 7.88649857,6.74491613 C7.81082861,6.73122012 7.74891683,6.69355609 7.70076322,6.63192406 C7.68012596,6.59768403 7.43247883,5.62869143 6.95782183,3.72494625 C6.48316483,1.82120106 6.24239679,0.855632464 6.2355177,0.828240447 C6.2355177,0.780304417 6.24927588,0.756336402 6.27679222,0.756336402 C6.33182492,0.73579239 6.51756027,0.718672379 6.83399826,0.70497637 L7.15387581,0.70497637 C7.19515033,0.650192336 7.21578759,0.619376317 7.21578759,0.612528313 C7.21578759,0.605680309 7.20546896,0.54404827 7.1848317,0.427632198 C7.15731535,0.338608143 7.12291992,0.273552102 7.08164539,0.232464077 L6.92686594,0.232464077 C6.67233972,0.246160085 6.2114409,0.253008089 5.54416946,0.253008089 C5.31028051,0.253008089 5.09358927,0.253008089 4.89409575,0.253008089 C4.69460223,0.253008089 4.53638323,0.253008089 4.41943875,0.253008089 C4.30249427,0.253008089 4.23026386,0.249584087 4.20274751,0.242736083 C4.08580303,0.242736083 4.0273308,0.273552102 4.0273308,0.335184141 C4.0273308,0.369424162 4.03764943,0.417360192 4.05828669,0.47899223 C4.09268212,0.609104311 4.12707756,0.681008356 4.16147299,0.694704364 C4.18898934,0.701552368 4.24058249,0.70497637 4.31625245,0.70497637 L4.37816423,0.70497637 C4.56389958,0.70497637 4.77027218,0.715248377 4.99728205,0.73579239 C5.03855657,0.742640394 5.06607292,0.746064396 5.0798311,0.746064396 C5.09358927,0.746064396 5.11422653,0.763184407 5.14174288,0.797424428 C5.16925923,0.831664449 5.18989649,0.862480468 5.20365466,0.889872485 C5.21741284,0.917264502 5.2380501,0.978896541 5.26556644,1.0747686 C5.29308279,1.17064066 5.3171596,1.26651272 5.33779686,1.36238478 C5.35843412,1.45825684 5.3962691,1.60548893 5.45130179,1.80408105 C5.4994554,1.99582517 5.53729038,2.14990527 5.56480673,2.26632134 C5.79181659,3.1702579 5.90532153,3.62565019 5.90532153,3.63249819 C5.90532153,3.63934619 5.40658773,3.6427702 4.40912012,3.6427702 L2.91291871,3.6427702 L2.57240391,2.25604933 C2.33851495,1.33841676 2.22157048,0.862480468 2.22157048,0.828240447 C2.22157048,0.780304417 2.24908682,0.749488398 2.30411952,0.73579239 C2.35915221,0.722096381 2.53112939,0.711824375 2.82005104,0.70497637 L3.13992858,0.70497637 C3.1812031,0.650192336 3.20184036,0.619376317 3.20184036,0.612528313 C3.20184036,0.605680309 3.19152173,0.54404827 3.17088447,0.427632198 C3.14336812,0.338608143 3.10897269,0.273552102 3.06769817,0.232464077 L2.91291871,0.232464077 C2.6583925,0.246160085 2.19749367,0.253008089 1.53022224,0.253008089 C1.29633328,0.253008089 1.07964204,0.253008089 0.880148524,0.253008089 C0.680655003,0.253008089 0.522436003,0.253008089 0.405491525,0.253008089 C0.288547047,0.253008089 0.216316635,0.249584087 0.188800287,0.242736083 C0.0718558091,0.242736083 0.0133835701,0.273552102 0.0133835701,0.335184141 C0.0133835701,0.348880149 0.0237022005,0.396816179 0.0443394613,0.47899223 C0.078734896,0.609104311 0.113130331,0.681008356 0.147525765,0.694704364 C0.175042113,0.701552368 0.226635265,0.70497637 0.302305221,0.70497637 L0.364217004,0.70497637 C0.549952351,0.70497637 0.756324959,0.715248377 0.983334828,0.73579239 C1.07964204,0.756336402 1.14499337,0.797424428 1.17938881,0.859056466 C1.20002607,0.886448483 1.4476732,1.83832108 1.92233019,3.71467424 C2.39698719,5.59102741 2.63431569,6.58056402 2.63431569,6.68328409 C2.63431569,6.73122012 2.43826171,6.76203614 2.04615376,6.77573214 Z"></path>
                            <g transform="translate(9.369959, 0.000000)">
                                <path d="M2.65271993,0.47899223 C3.05858605,0.47899223 3.43005675,0.657040341 3.76713201,1.01313656 C4.10420727,1.36923278 4.27618444,1.78353704 4.28306353,2.25604933 C4.28306353,2.6874736 4.10420727,2.98536179 3.74649475,3.14971389 C3.01731153,3.33461001 2.54953362,3.46129808 2.34316101,3.52977813 C2.13678841,3.59825817 1.99232758,3.66673821 1.90977854,3.73521825 C1.49703332,4.02283443 1.29066071,4.43713869 1.29066071,4.97813103 C1.29066071,5.39585929 1.4007261,5.77592352 1.62085689,6.11832374 C1.84098767,6.46072395 2.06455799,6.71752411 2.29156786,6.88872422 C2.49106138,7.05992432 2.73182942,7.19688441 3.01387199,7.29960447 C3.29591455,7.40232453 3.51604534,7.45710857 3.67426433,7.46395657 L3.78776927,7.46395657 L3.85999968,7.46395657 C4.52039203,7.46395657 4.99848857,7.24482044 5.29428931,6.80654816 C5.30116839,6.80654816 5.34588246,6.85106019 5.4284315,6.94008425 C5.51098055,7.0291083 5.60040868,7.12840436 5.69671589,7.23797243 C5.79302311,7.3475405 5.86181398,7.42286855 5.9030885,7.46395657 C5.90996759,7.46395657 5.92372576,7.46395657 5.94436302,7.46395657 C5.96500028,7.46395657 5.982198,7.46738057 5.99595617,7.47422858 C6.0853843,7.47422858 6.13009837,7.45026056 6.13009837,7.40232453 C6.13009837,7.3543885 6.03379115,6.94008425 5.84117672,6.15941176 C5.64856228,5.37873928 5.53849689,4.97470703 5.51098055,4.94731501 C5.4834642,4.91992299 5.4284315,4.90965098 5.34588246,4.91649899 C5.20830072,4.91649899 5.13950985,4.94731501 5.13950985,5.00894705 C5.13950985,5.05003507 5.14294939,5.08427509 5.14982848,5.11166711 C5.14982848,5.13221112 5.15326803,5.19726716 5.16014711,5.30683523 C5.1670262,5.4164033 5.17390529,5.50542735 5.18078437,5.5739074 C5.18078437,5.80673954 5.14982848,6.00875567 5.0879167,6.17995577 C5.02600492,6.35115588 4.96409313,6.47784396 4.90218135,6.56002001 C4.84026957,6.64219606 4.75428098,6.72779611 4.64421559,6.81682017 C4.39656846,6.96062826 4.1145259,7.0325323 3.7980879,7.0325323 C3.40597994,7.0325323 3.04138834,6.87502821 2.70431308,6.56002001 C2.36723782,6.24501181 2.19526064,5.88206759 2.18838156,5.47118733 C2.18838156,5.26574721 2.23997471,5.0876991 2.34316101,4.937043 C2.44634732,4.78638691 2.5873686,4.68024284 2.76622486,4.6186108 C2.79374121,4.6049148 3.03450925,4.53985875 3.48852899,4.42344268 C3.94254873,4.30702661 4.17299814,4.24539457 4.17987722,4.23854657 C4.41376618,4.16321852 4.64077605,3.99886642 4.86090683,3.74549026 C5.08103761,3.4921141 5.191103,3.14971389 5.191103,2.71828962 C5.191103,2.54024151 5.16358666,2.34849739 5.10855396,2.14305726 C5.07415853,1.99240117 5.01224674,1.82462507 4.92281861,1.63972895 C4.83339048,1.45483284 4.70956692,1.25281671 4.55134792,1.03368057 C4.39312892,0.814544439 4.16611905,0.609104311 3.87031831,0.417360192 C3.57451757,0.225616072 3.25120049,0.0955039915 2.90036705,0.0270239489 C2.81781801,0.0133279404 2.70087353,0.00647993614 2.54953362,0.00647993614 C1.86850401,0.00647993614 1.33881432,0.194800053 0.960464539,0.571440287 L0.857278235,0.684432358 L0.568356584,0.36600016 C0.410137585,0.181104045 0.313830368,0.0749599787 0.279434933,0.0475679617 C0.245039498,0.0201759447 0.200325433,0.00647993614 0.145292738,0.00647993614 C0.0558646077,0.00647993614 0.0111505426,0.0338719532 0.0111505426,0.0886559872 C0.0111505426,0.1092 0.210644064,0.9138405 0.609631106,2.50257749 C0.62338928,2.54366551 0.692180149,2.56420953 0.816003714,2.56420953 L0.950145909,2.56420953 C0.991420431,2.5231215 1.01205769,2.48545748 1.01205769,2.45121746 C1.01205769,2.43752145 1.00861815,2.40670543 1.00173906,2.3587694 C0.994859974,2.31083337 0.9811018,2.23892932 0.960464539,2.14305726 C0.939827279,2.0471852 0.932948192,1.93419313 0.939827279,1.80408105 C0.953585452,1.53700889 1.01549723,1.31102475 1.12556263,1.12612863 C1.23562802,0.941232517 1.38352839,0.804272432 1.56926373,0.715248377 C1.75499908,0.626224321 1.93385534,0.564592283 2.10583251,0.530352262 C2.27780969,0.496112241 2.46010549,0.47899223 2.65271993,0.47899223 Z"></path>
                            </g>
                        </g>
                    </g>
                </g>
            </g>
        </g>
    </g>
</svg>